<svg width="4" height="16" viewBox="0 0 4 16" fill="none" xmlns="http://www.w3.org/2000/svg">
<g filter="url(#filter0_i_4724_1047)">
<path d="M0.750423 9.95831L0.202817 3.02197L0.101408 0H3.46817L3.36676 3.02197L2.81915 9.95831H0.750423ZM1.78479 15.3532C1.27099 15.3532 0.84507 15.1842 0.507042 14.8462C0.169014 14.5082 0 14.0823 0 13.5684C0 13.0411 0.169014 12.6084 0.507042 12.2704C0.84507 11.9324 1.27099 11.7634 1.78479 11.7634C2.29859 11.7634 2.72451 11.9324 3.06253 12.2704C3.40056 12.6084 3.56958 13.0411 3.56958 13.5684C3.56958 14.0823 3.40056 14.5082 3.06253 14.8462C2.72451 15.1842 2.29859 15.3532 1.78479 15.3532Z" fill="#08004F"/>
</g>
<defs>
<filter id="filter0_i_4724_1047" x="0" y="0" width="3.57031" height="15.3535" filterUnits="userSpaceOnUse" color-interpolation-filters="sRGB">
<feFlood flood-opacity="0" result="BackgroundImageFix"/>
<feBlend mode="normal" in="SourceGraphic" in2="BackgroundImageFix" result="shape"/>
<feColorMatrix in="SourceAlpha" type="matrix" values="0 0 0 0 0 0 0 0 0 0 0 0 0 0 0 0 0 0 127 0" result="hardAlpha"/>
<feOffset/>
<feGaussianBlur stdDeviation="2.5"/>
<feComposite in2="hardAlpha" operator="arithmetic" k2="-1" k3="1"/>
<feColorMatrix type="matrix" values="0 0 0 0 0.772549 0 0 0 0 0.258824 0 0 0 0 0.380392 0 0 0 0.5 0"/>
<feBlend mode="normal" in2="shape" result="effect1_innerShadow_4724_1047"/>
</filter>
</defs>
</svg>
