<svg width="407" height="73" viewBox="0 0 407 73" fill="none" xmlns="http://www.w3.org/2000/svg">
<g filter="url(#filter0_d_4724_1152)">
<path d="M10 10.5H397" stroke="#FECADF"/>
</g>
<g filter="url(#filter1_d_4724_1152)">
<path d="M397 62.5H10V48.5H13V59.5H394V48.5H397V62.5ZM397 32.5H394V21.5H13V32.5H10V18.5H397V32.5Z" fill="#C54261"/>
</g>
<rect x="19" y="24.5" width="9" height="32" fill="#C54261" fill-opacity="0.3"/>
<rect x="31" y="24.5" width="9" height="32" fill="#C54261" fill-opacity="0.3"/>
<rect x="43" y="24.5" width="9" height="32" fill="#C54261" fill-opacity="0.3"/>
<rect x="55" y="24.5" width="9" height="32" fill="#C54261" fill-opacity="0.3"/>
<rect x="67" y="24.5" width="9" height="32" fill="#C54261" fill-opacity="0.3"/>
<rect x="79" y="24.5" width="9" height="32" fill="#C54261" fill-opacity="0.3"/>
<rect x="91" y="24.5" width="9" height="32" fill="#C54261" fill-opacity="0.3"/>
<rect x="103" y="24.5" width="9" height="32" fill="#C54261" fill-opacity="0.3"/>
<rect x="115" y="24.5" width="9" height="32" fill="#C54261" fill-opacity="0.3"/>
<rect x="127" y="24.5" width="9" height="32" fill="#C54261" fill-opacity="0.3"/>
<rect x="139" y="24.5" width="9" height="32" fill="#C54261" fill-opacity="0.3"/>
<rect x="151" y="24.5" width="9" height="32" fill="#C54261" fill-opacity="0.3"/>
<rect x="163" y="24.5" width="9" height="32" fill="#C54261" fill-opacity="0.3"/>
<rect x="175" y="24.5" width="9" height="32" fill="#C54261" fill-opacity="0.3"/>
<rect x="187" y="24.5" width="9" height="32" fill="#C54261" fill-opacity="0.3"/>
<rect x="199" y="24.5" width="9" height="32" fill="#C54261" fill-opacity="0.3"/>
<rect x="211" y="24.5" width="9" height="32" fill="#C54261" fill-opacity="0.3"/>
<rect x="223" y="24.5" width="9" height="32" fill="#C54261" fill-opacity="0.3"/>
<rect x="235" y="24.5" width="9" height="32" fill="#C54261" fill-opacity="0.3"/>
<rect x="247" y="24.5" width="9" height="32" fill="#C54261" fill-opacity="0.3"/>
<rect x="259" y="24.5" width="9" height="32" fill="#C54261" fill-opacity="0.3"/>
<rect x="271" y="24.5" width="9" height="32" fill="#C54261" fill-opacity="0.3"/>
<rect x="283" y="24.5" width="9" height="32" fill="#C54261" fill-opacity="0.3"/>
<rect x="295" y="24.5" width="9" height="32" fill="#C54261" fill-opacity="0.3"/>
<rect x="307" y="24.5" width="9" height="32" fill="#C54261" fill-opacity="0.3"/>
<rect x="319" y="24.5" width="9" height="32" fill="#C54261" fill-opacity="0.3"/>
<rect x="331" y="24.5" width="9" height="32" fill="#C54261" fill-opacity="0.3"/>
<rect x="343" y="24.5" width="9" height="32" fill="#C54261" fill-opacity="0.3"/>
<rect x="355" y="24.5" width="9" height="32" fill="#C54261" fill-opacity="0.3"/>
<rect x="367" y="24.5" width="9" height="32" fill="#C54261" fill-opacity="0.3"/>
<rect x="379" y="24.5" width="9" height="32" fill="#C54261" fill-opacity="0.3"/>
<defs>
<filter id="filter0_d_4724_1152" x="0" y="0" width="407" height="21" filterUnits="userSpaceOnUse" color-interpolation-filters="sRGB">
<feFlood flood-opacity="0" result="BackgroundImageFix"/>
<feColorMatrix in="SourceAlpha" type="matrix" values="0 0 0 0 0 0 0 0 0 0 0 0 0 0 0 0 0 0 127 0" result="hardAlpha"/>
<feOffset/>
<feGaussianBlur stdDeviation="5"/>
<feComposite in2="hardAlpha" operator="out"/>
<feColorMatrix type="matrix" values="0 0 0 0 0.772549 0 0 0 0 0.258824 0 0 0 0 0.380392 0 0 0 1 0"/>
<feBlend mode="normal" in2="BackgroundImageFix" result="effect1_dropShadow_4724_1152"/>
<feBlend mode="normal" in="SourceGraphic" in2="effect1_dropShadow_4724_1152" result="shape"/>
</filter>
<filter id="filter1_d_4724_1152" x="0" y="8.5" width="407" height="64" filterUnits="userSpaceOnUse" color-interpolation-filters="sRGB">
<feFlood flood-opacity="0" result="BackgroundImageFix"/>
<feColorMatrix in="SourceAlpha" type="matrix" values="0 0 0 0 0 0 0 0 0 0 0 0 0 0 0 0 0 0 127 0" result="hardAlpha"/>
<feOffset/>
<feGaussianBlur stdDeviation="5"/>
<feComposite in2="hardAlpha" operator="out"/>
<feColorMatrix type="matrix" values="0 0 0 0 0.772549 0 0 0 0 0.258824 0 0 0 0 0.380392 0 0 0 1 0"/>
<feBlend mode="normal" in2="BackgroundImageFix" result="effect1_dropShadow_4724_1152"/>
<feBlend mode="normal" in="SourceGraphic" in2="effect1_dropShadow_4724_1152" result="shape"/>
</filter>
</defs>
</svg>
