<svg width="1440" height="1024" viewBox="0 0 1440 1024" fill="none" xmlns="http://www.w3.org/2000/svg">
<g opacity="0.3" filter="url(#filter0_df_4662_1188)">
<path d="M0 416.799H1440M0 26.9874H1440M0 91.956H1440M0 156.925H1440M0 195.906H1440M0 286.862H1440M0 377.818H1440M0 520.748H1440M0 52.9748H1440M0 130.937H1440M0 819.604H1440M0 247.881H1440M0 364.824H1440M0 429.792H1440M0 481.767H1440M0 39.9811H1440M0 104.95H1440M0 169.918H1440M0 221.893H1440M0 312.849H1440M0 403.805H1440M0 702.66H1440M0 338.836H1440M0 468.774H1440M0 546.736H1440M0 572.723H1440M0 624.698H1440M0 689.667H1440M0 832.597H1440M0 559.73H1440M0 598.711H1440M0 637.692H1440M0 754.635H1440M0 780.623H1440M0 806.61H1440M0 351.83H1440M0 78.9623H1440M0 117.943H1440M0 182.912H1440M0 273.868H1440M0 325.843H1440M0 533.742H1440M0 234.887H1440M0 299.855H1440M0 390.811H1440M0 442.786H1440M0 494.761H1440M0 767.629H1440M0 455.78H1440M0 507.755H1440M0 585.717H1440M0 650.686H1440M0 715.654H1440M0 884.572H1440M0 611.704H1440M0 663.679H1440M0 728.648H1440M0 845.591H1440M0 871.579H1440M0 897.566H1440M0 1H1440M0 13.9937H1440M0 65.9686H1440M0 143.931H1440M0 208.899H1440M0 260.874H1440M0 676.673H1440M0 741.641H1440M0 793.616H1440M0 858.585H1440M0 910.56H1440M0 923.553H1440M0 936.547H1440M0 988.522H1440M0 949.541H1440M0 975.528H1440M0 1001.52H1440M0 962.535H1440M0 1014.51H1440M0 1027.5H1440M0 423.296H1440M0 33.4843H1440M0 98.4528H1440M0 163.421H1440M0 202.403H1440M0 293.358H1440M0 384.314H1440M0 527.245H1440M0 59.4717H1440M0 137.434H1440M0 826.101H1440M0 254.377H1440M0 371.321H1440M0 436.289H1440M0 488.264H1440M0 46.478H1440M0 111.447H1440M0 176.415H1440M0 228.39H1440M0 319.346H1440M0 410.302H1440M0 709.157H1440M0 345.333H1440M0 475.27H1440M0 553.233H1440M0 579.22H1440M0 631.195H1440M0 696.164H1440M0 839.094H1440M0 566.226H1440M0 605.208H1440M0 644.189H1440M0 761.132H1440M0 787.12H1440M0 813.107H1440M0 358.327H1440M0 85.4591H1440M0 124.44H1440M0 189.409H1440M0 280.365H1440M0 332.34H1440M0 540.239H1440M0 241.384H1440M0 306.352H1440M0 397.308H1440M0 449.283H1440M0 501.258H1440M0 774.126H1440M0 462.277H1440M0 514.252H1440M0 592.214H1440M0 657.182H1440M0 722.151H1440M0 891.069H1440M0 618.201H1440M0 670.176H1440M0 735.145H1440M0 852.088H1440M0 878.076H1440M0 904.063H1440M0 7.49686H1440M0 20.4906H1440M0 72.4654H1440M0 150.428H1440M0 215.396H1440M0 267.371H1440M0 683.17H1440M0 748.138H1440M0 800.113H1440M0 865.082H1440M0 917.057H1440M0 930.05H1440M0 943.044H1440M0 995.019H1440M0 956.038H1440M0 982.025H1440M0 1008.01H1440M0 969.031H1440M0 1021.01H1440M0 1034H1440" stroke="#BEB7E8"/>
</g>
<defs>
<filter id="filter0_df_4662_1188" x="-10" y="-9.5" width="1460" height="1054" filterUnits="userSpaceOnUse" color-interpolation-filters="sRGB">
<feFlood flood-opacity="0" result="BackgroundImageFix"/>
<feColorMatrix in="SourceAlpha" type="matrix" values="0 0 0 0 0 0 0 0 0 0 0 0 0 0 0 0 0 0 127 0" result="hardAlpha"/>
<feOffset/>
<feGaussianBlur stdDeviation="5"/>
<feComposite in2="hardAlpha" operator="out"/>
<feColorMatrix type="matrix" values="0 0 0 0 0.423529 0 0 0 0 0.388235 0 0 0 0 0.658824 0 0 0 1 0"/>
<feBlend mode="normal" in2="BackgroundImageFix" result="effect1_dropShadow_4662_1188"/>
<feBlend mode="normal" in="SourceGraphic" in2="effect1_dropShadow_4662_1188" result="shape"/>
<feGaussianBlur stdDeviation="1" result="effect2_foregroundBlur_4662_1188"/>
</filter>
</defs>
</svg>
